Coordinates
version=1
nRows=8
nColumns=36
inDegrees=yes

Units are S.I. units (second, meters, Newtons, ...)
If the header above contains a line with 'inDegrees', this indicates whether rotational values are in degrees (yes) or radians (no).

endheader
time	pelvis_tilt	pelvis_list	pelvis_rotation	pelvis_tx	pelvis_ty	pelvis_tz	hip_flexion_r	hip_adduction_r	hip_rotation_r	knee_angle_r	knee_angle_r_beta	ankle_angle_r	subtalar_angle_r	mtp_angle_r	hip_flexion_l	hip_adduction_l	hip_rotation_l	knee_angle_l	knee_angle_l_beta	ankle_angle_l	subtalar_angle_l	mtp_angle_l	lumbar_extension	lumbar_bending	lumbar_rotation	arm_flex_r	arm_add_r	arm_rot_r	elbow_flex_r	pro_sup_r	arm_flex_l	arm_add_l	arm_rot_l	elbow_flex_l	pro_sup_l
      0.00000000	      2.96179947	      1.42963827	     -6.90370831	      0.53633745	      0.91492657	      0.79325708	      6.28931937	      0.27533794	     -7.00890288	     16.04409758	      0.28002233	     14.27683299	     -7.08753237	     -6.92201160	     14.41962562	     -2.31270280	     -5.59755412	     59.21040270	      1.03341648	      4.06240026	     -9.68889918	     -6.92201160	     -8.63568172	     -2.06324640	      5.62620130	      4.98277193	    -14.43194284	      8.49718773	     26.67533807	     79.21925720	     -0.91005517	    -10.14678272	     13.43681076	     19.43736692	     73.04922993
      0.01666670	     -0.17232157	      1.38782250	     -7.70399088	      0.53503221	      0.91137612	      0.79282531	      9.63369281	      0.79486688	     -5.36545639	     18.95427115	      0.33081444	     15.81594313	     -6.39223246	     -7.00218603	     19.98409416	     -3.25616381	     -7.47807377	     58.25532622	      1.01674725	     11.87496132	     -3.38924670	     -7.00218603	     -4.92392698	     -1.51072976	      6.61003383	      5.63968229	    -14.60630276	      8.48736677	     27.00964763	     77.55916008	     -2.62499748	    -10.13549199	     16.26172194	     19.48299741	     72.71572572
      0.03333330	     -3.35450477	      1.15205526	     -9.27591866	      0.53430795	      0.90841348	      0.79235243	     12.67267658	      1.42413453	     -3.67693350	     20.20637262	      0.35266773	     14.36998223	     -4.81746234	     -7.10636880	     24.35999659	     -4.68739388	     -9.33005694	     55.85278637	      0.97481502	     15.70860288	      1.38854465	     -7.10636880	     -0.67696771	     -0.36451037	      9.03048282	      5.40245033	    -15.86416180	      9.39544014	     27.95815705	     78.79965361	     -3.94680424	    -10.13046200	     21.88362207	     18.88904399	     74.72686129
      0.05000000	     -5.49661667	      1.13483907	    -10.34919929	      0.53271587	      0.90927273	      0.79292102	     15.05261696	      1.80277226	     -3.31925367	     21.18281704	      0.36970990	     14.10863855	     -3.44069994	     -7.13793081	     27.54355271	     -5.72630252	    -11.18746215	     52.78261804	      0.92123047	     16.30790966	      4.15122504	     -7.13793081	      1.70680780	      0.60443388	      9.84488269	      6.15047494	    -16.48239941	      8.94294739	     29.22692331	     78.29179665	     -5.76534838	     -9.94297321	     22.06785825	     19.54291655	     74.29012951
      0.06666670	     -6.67122178	      1.10663388	    -11.34400856	      0.53100932	      0.91224324	      0.79408187	     16.40415528	      2.12924542	     -3.03484740	     21.96795959	      0.38341322	     14.33215802	     -2.20245675	     -7.15675345	     29.48944028	     -6.54115082	    -12.70985415	     49.37660240	      0.86178429	     15.58177709	      5.19204817	     -7.15675345	      3.10262294	      1.37838863	     10.89353054	      6.95484613	    -17.07202730	      8.36904906	     29.94552033	     78.22804750	     -6.70531670	     -9.56702058	     22.25662608	     19.32686122	     74.11130770
      0.08333330	     -7.03935893	      0.88606483	    -11.90258754	      0.53009883	      0.91422026	      0.79533571	     16.49179677	      2.51857531	     -2.88849506	     22.16533453	      0.38685807	     14.58819642	     -1.52117605	     -7.16437945	     30.41706747	     -7.24752934	    -13.61927303	     45.86301798	      0.80046067	     14.44397102	      5.98052729	     -7.16437945	      3.53047087	      2.11563586	     11.23450682	      7.91044764	    -17.52389811	      7.99489818	     30.83618970	     78.09172830	     -7.46556315	     -9.32639889	     22.32932264	     19.40344018	     73.96874845
      0.10000000	     -7.30376751	      0.77822262	    -12.31019182	      0.53026311	      0.91251190	      0.79622334	     16.44902372	      2.67385768	     -2.98206420	     22.52403561	      0.39311858	     15.70657486	     -0.23492787	     -7.19906952	     31.11827307	     -7.80000580	    -14.36144486	     42.51338729	      0.74199858	     13.78410968	      7.26092124	     -7.19906952	      3.97315303	      2.61934760	     11.68773441	      8.28416016	    -17.90379044	      7.18846906	     32.19476339	     76.73587811	     -8.18433784	     -9.18562581	     21.92864200	     19.72208624	     72.61518367
      0.11666670	     -7.79281253	      0.59317841	    -12.26803312	      0.53118768	      0.90769312	      0.79628948	     16.66471513	      2.78614046	     -3.51038604	     23.14245824	      0.40391209	     17.22067860	      1.10807112	     -7.21045950	     32.38135727	     -8.25013607	    -14.38433463	     39.93964887	      0.69707837	     13.19897159	      7.99391603	     -7.21045950	      4.88629291	      3.16219808	     11.57326360	      8.47917790	    -18.14291173	      6.47685155	     33.32967607	     76.74561861	     -8.82851383	     -9.03694135	     21.75411331	     19.53837707	     72.26504127
